# File produced by Open Asset Import Library (http://www.assimp.sf.net)
# (assimp v3.1.187496374)

mtllib PacMan.obj.mtl

# 250 vertex positions
v  1.21031 40.7353 0
v  1.0037 34.2798 0
v  0.957776 37.5123 0
v  1.34768 31.0653 0
v  1.75915 43.9212 0
v  1.98679 27.8963 0
v  2.5996 47.0429 0
v  2.91558 24.7998 0
v  3.7245 50.0737 0
v  4.12611 21.8021 0
v  5.12425 52.9878 0
v  5.60808 18.9289 0
v  6.78691 55.7603 0
v  7.34882 16.2048 0
v  8.69829 58.3676 0
v  9.33349 13.6529 0
v  10.8421 60.7874 0
v  11.5452 11.2949 0
v  13.2 62.9991 0
v  13.965 9.15113 0
v  15.7519 64.9837 0
v  16.5722 7.23975 0
v  18.4761 66.7245 0
v  19.3447 5.57709 0
v  21.3493 68.2065 0
v  22.2588 4.17734 0
v  24.3469 69.417 0
v  25.2897 3.05244 0
v  27.4435 70.3458 0
v  28.4113 2.21199 0
v  30.6125 70.9849 0
v  31.5973 1.66315 0
v  32.588 56.7086 0
v  32.6169 57.0769 0
v  33.827 71.3289 0
v  32.5933 56.3392 0
v  34.8202 1.41062 0
v  32.6326 55.9718 0
v  32.7057 55.6096 0
v  32.8118 55.2557 0
v  32.9501 54.9131 0
v  33.1195 54.5848 0
v  33.3185 54.2734 0
v  33.5453 53.9818 0
v  33.798 53.7123 0
v  34.0746 53.4673 0
v  34.3726 53.2489 0
v  34.6894 53.0588 0
v  35.0225 52.8989 0
v  35.9399 36.3927 0
v  35.3688 52.7703 0
v  38.0527 1.45654 0
v  63.1814 14.4178 0
v  41.2672 1.80052 0
v  44.4363 2.43963 0
v  47.5328 3.36842 0
v  50.5305 4.57896 0
v  53.4036 6.06092 0
v  56.1278 7.80166 0
v  58.6797 9.78633 0
v  61.0376 11.998 0
v  36.0897 52.6115 0
v  35.7256 52.6743 0
v  36.458 52.5827 0
v  36.8275 52.5879 0
v  66.2717 53.8565 0
v  37.1948 52.6272 0
v  37.557 52.7003 0
v  37.9109 52.8064 0
v  38.2535 52.9448 0
v  38.5819 53.1141 0
v  38.8932 53.3131 0
v  39.1848 53.5399 0
v  39.4543 53.7927 0
v  39.6993 54.0692 0
v  39.9178 54.3672 0
v  40.1078 54.684 0
v  40.2678 55.0171 0
v  40.3963 55.3635 0
v  40.4924 55.7202 0
v  40.5551 56.0843 0
v  40.584 56.4527 0
v  40.5787 56.8221 0
v  43.4684 70.5734 0
v  40.5394 57.1895 0
v  40.3602 57.9055 0
v  40.2825 71.1223 0
v  40.4664 57.5516 0
v  46.5901 69.733 0
v  40.2219 58.2481 0
v  40.0525 58.5765 0
v  39.8535 58.8878 0
v  39.6267 59.1795 0
v  39.374 59.4489 0
v  39.0974 59.694 0
v  38.7994 59.9124 0
v  38.4826 60.1024 0
v  38.1495 60.2624 0
v  37.8032 60.3909 0
v  37.4464 60.487 0
v  37.0823 60.5497 0
v  37.0595 71.3748 0
v  36.714 60.5786 0
v  36.3445 60.5733 0
v  35.9772 60.534 0
v  35.615 60.461 0
v  35.2611 60.3548 0
v  34.9185 60.2165 0
v  34.5901 60.0471 0
v  34.2788 59.8482 0
v  33.9872 59.6214 0
v  33.7177 59.3686 0
v  33.4727 59.092 0
v  33.2542 58.7941 0
v  33.0642 58.4772 0
v  32.9042 58.1442 0
v  32.6796 57.441 0
v  32.7757 57.7978 0
v  49.6209 68.6081 0
v  52.535 67.2083 0
v  55.3075 65.5457 0
v  57.9148 63.6343 0
v  60.3346 61.4905 0
v  62.5462 59.1326 0
v  64.5309 56.5806 0
v  53.4036 6.06092 3
v  56.1278 7.80166 3
v  50.5305 4.57896 3
v  58.6797 9.78633 3
v  61.0376 11.998 3
v  63.1814 14.4178 3
v  35.9399 36.3927 3
v  33.1195 54.5848 3
v  32.9501 54.9131 3
v  32.8118 55.2557 3
v  9.33349 13.6529 3
v  11.5452 11.2949 3
v  13.965 9.15113 3
v  66.2717 53.8565 3
v  64.5309 56.5806 3
v  32.588 56.7086 3
v  32.6169 57.0769 3
v  32.5933 56.3392 3
v  32.6326 55.9718 3
v  32.7057 55.6096 3
v  32.6796 57.441 3
v  32.7757 57.7978 3
v  32.9042 58.1442 3
v  33.0642 58.4772 3
v  33.2542 58.7941 3
v  33.798 53.7123 3
v  33.5453 53.9818 3
v  33.4727 59.092 3
v  36.0897 52.6115 3
v  35.7256 52.6743 3
v  36.458 52.5827 3
v  36.8275 52.5879 3
v  37.1948 52.6272 3
v  37.557 52.7003 3
v  37.9109 52.8064 3
v  38.2535 52.9448 3
v  38.5819 53.1141 3
v  38.8932 53.3131 3
v  39.1848 53.5399 3
v  39.4543 53.7927 3
v  39.6993 54.0692 3
v  39.9178 54.3672 3
v  40.1078 54.684 3
v  40.2678 55.0171 3
v  40.3963 55.3635 3
v  40.4924 55.7202 3
v  40.5551 56.0843 3
v  40.584 56.4527 3
v  40.5787 56.8221 3
v  40.5394 57.1895 3
v  40.4664 57.5516 3
v  40.3602 57.9055 3
v  40.2219 58.2481 3
v  40.0525 58.5765 3
v  39.8535 58.8878 3
v  39.6267 59.1795 3
v  39.374 59.4489 3
v  39.0974 59.694 3
v  38.7994 59.9124 3
v  38.4826 60.1024 3
v  38.1495 60.2624 3
v  37.8032 60.3909 3
v  33.9872 59.6214 3
v  33.7177 59.3686 3
v  34.2788 59.8482 3
v  34.5901 60.0471 3
v  34.9185 60.2165 3
v  35.2611 60.3548 3
v  35.615 60.461 3
v  35.9772 60.534 3
v  36.3445 60.5733 3
v  36.714 60.5786 3
v  37.0823 60.5497 3
v  37.4464 60.487 3
v  34.0746 53.4673 3
v  34.3726 53.2489 3
v  34.6894 53.0588 3
v  35.0225 52.8989 3
v  35.3688 52.7703 3
v  62.5462 59.1326 3
v  57.9148 63.6343 3
v  60.3346 61.4905 3
v  55.3075 65.5457 3
v  52.535 67.2083 3
v  49.6209 68.6081 3
v  46.5901 69.733 3
v  43.4684 70.5734 3
v  40.2825 71.1223 3
v  37.0595 71.3748 3
v  33.827 71.3289 3
v  30.6125 70.9849 3
v  27.4435 70.3458 3
v  24.3469 69.417 3
v  21.3493 68.2065 3
v  18.4761 66.7245 3
v  15.7519 64.9837 3
v  13.2 62.9991 3
v  10.8421 60.7874 3
v  8.69829 58.3676 3
v  6.78691 55.7603 3
v  5.12425 52.9878 3
v  3.7245 50.0737 3
v  2.5996 47.0429 3
v  1.75915 43.9212 3
v  1.21031 40.7353 3
v  0.957776 37.5123 3
v  1.0037 34.2798 3
v  1.34768 31.0653 3
v  1.98679 27.8963 3
v  16.5722 7.23975 3
v  19.3447 5.57709 3
v  2.91558 24.7998 3
v  4.12611 21.8021 3
v  5.60808 18.9289 3
v  7.34882 16.2048 3
v  22.2588 4.17734 3
v  25.2897 3.05244 3
v  28.4113 2.21199 3
v  31.5973 1.66315 3
v  34.8202 1.41062 3
v  38.0527 1.45654 3
v  41.2672 1.80052 3
v  44.4363 2.43963 3
v  47.5328 3.36842 3
v  33.3185 54.2734 3

# 0 UV coordinates

# 72 vertex normals
vn 0 0 -1
vn 0.498964 -0.866622 0
vn 0.416874 -0.908964 0
vn 0.576798 -0.816887 0
vn 0.717079 -0.696992 0
vn 0.64971 -0.760182 0
vn 0.627855 0.778331 0
vn 0.908964 0.416874 0
vn 0.866622 0.498964 0
vn 0.943551 0.331227 0
vn -0.760182 -0.64971 0
vn -0.696992 -0.717079 0
vn 0.816887 0.576798 0
vn 0.842654 0.538456 0
vn 0.992273 -0.124074 0
vn 0.999488 -0.0319898 0
vn 0.998176 0.0603678 0
vn 0.988348 0.15221 0
vn 0.970088 0.242754 0
vn 0.976592 -0.215101 0
vn 0.952579 -0.304292 0
vn 0.920439 -0.390886 0
vn 0.880446 -0.474146 0
vn 0.832942 -0.553361 0
vn 0.760182 0.64971 0
vn 0.696992 0.717079 0
vn 0.748504 -0.663131 0
vn 0.778331 -0.627855 0
vn 0.124074 0.992273 0
vn 0.0319898 0.999488 0
vn -0.0603678 0.998176 0
vn -0.15221 0.988348 0
vn -0.242754 0.970088 0
vn -0.331227 0.943551 0
vn -0.416874 0.908964 0
vn -0.498964 0.866622 0
vn -0.576798 0.816887 0
vn -0.64971 0.760182 0
vn -0.717079 0.696992 0
vn -0.778331 0.627855 0
vn -0.832942 0.553361 0
vn -0.880446 0.474146 0
vn -0.920439 0.390886 0
vn -0.952579 0.304292 0
vn -0.976592 0.215101 0
vn -0.992273 0.124074 0
vn -0.999488 0.0319898 0
vn -0.998176 -0.0603678 0
vn -0.988348 -0.15221 0
vn -0.970088 -0.242754 0
vn -0.943551 -0.331227 0
vn -0.908964 -0.416874 0
vn -0.866622 -0.498964 0
vn -0.816887 -0.576798 0
vn -0.627855 -0.778331 0
vn -0.553361 -0.832942 0
vn -0.474146 -0.880446 0
vn -0.390886 -0.920439 0
vn -0.304292 -0.952579 0
vn 0.331227 -0.943551 0
vn 0.242754 -0.970088 0
vn 0.15221 -0.988348 0
vn 0.0603678 -0.998176 0
vn -0.0319898 -0.999488 0
vn -0.124074 -0.992273 0
vn 0.553361 0.832942 0
vn 0.474146 0.880446 0
vn 0.390886 0.920439 0
vn 0.304292 0.952579 0
vn 0.215101 0.976592 0
vn -0.215101 -0.976592 0
vn -1.76875e-32 -3.43531e-32 1

# Mesh 'PacMan' with 500 faces
g PacMan
usemtl DefaultMaterial
f  1//1 2//1 3//1
f  2//1 1//1 4//1
f  4//1 1//1 5//1
f  4//1 5//1 6//1
f  6//1 5//1 7//1
f  6//1 7//1 8//1
f  8//1 7//1 9//1
f  8//1 9//1 10//1
f  10//1 9//1 11//1
f  10//1 11//1 12//1
f  12//1 11//1 13//1
f  12//1 13//1 14//1
f  14//1 13//1 15//1
f  14//1 15//1 16//1
f  16//1 15//1 17//1
f  16//1 17//1 18//1
f  18//1 17//1 19//1
f  18//1 19//1 20//1
f  20//1 19//1 21//1
f  20//1 21//1 22//1
f  22//1 21//1 23//1
f  22//1 23//1 24//1
f  24//1 23//1 25//1
f  24//1 25//1 26//1
f  26//1 25//1 27//1
f  26//1 27//1 28//1
f  28//1 27//1 29//1
f  28//1 29//1 30//1
f  30//1 29//1 31//1
f  30//1 31//1 32//1
f  32//1 31//1 33//1
f  33//1 31//1 34//1
f  34//1 31//1 35//1
f  32//1 36//1 37//1
f  36//1 32//1 33//1
f  37//1 36//1 38//1
f  37//1 38//1 39//1
f  37//1 39//1 40//1
f  37//1 40//1 41//1
f  37//1 41//1 42//1
f  37//1 42//1 43//1
f  37//1 43//1 44//1
f  37//1 44//1 45//1
f  37//1 45//1 46//1
f  37//1 46//1 47//1
f  37//1 47//1 48//1
f  37//1 48//1 49//1
f  37//1 49//1 50//1
f  50//1 49//1 51//1
f  37//1 50//1 52//1
f  52//1 50//1 53//1
f  52//1 53//1 54//1
f  54//1 53//1 55//1
f  55//1 53//1 56//1
f  56//1 53//1 57//1
f  57//1 53//1 58//1
f  58//1 53//1 59//1
f  59//1 53//1 60//1
f  60//1 53//1 61//1
f  62//1 50//1 63//1
f  50//1 62//1 64//1
f  50//1 64//1 65//1
f  50//1 65//1 66//1
f  50//1 51//1 63//1
f  66//1 65//1 67//1
f  66//1 67//1 68//1
f  66//1 68//1 69//1
f  66//1 69//1 70//1
f  66//1 70//1 71//1
f  66//1 71//1 72//1
f  66//1 72//1 73//1
f  66//1 73//1 74//1
f  66//1 74//1 75//1
f  66//1 75//1 76//1
f  66//1 76//1 77//1
f  66//1 77//1 78//1
f  66//1 78//1 79//1
f  66//1 79//1 80//1
f  66//1 80//1 81//1
f  66//1 81//1 82//1
f  83//1 84//1 82//1
f  66//1 82//1 84//1
f  85//1 84//1 83//1
f  86//1 87//1 84//1
f  86//1 84//1 88//1
f  88//1 84//1 85//1
f  66//1 84//1 89//1
f  90//1 87//1 86//1
f  91//1 87//1 90//1
f  92//1 87//1 91//1
f  93//1 87//1 92//1
f  94//1 87//1 93//1
f  95//1 87//1 94//1
f  96//1 87//1 95//1
f  97//1 87//1 96//1
f  98//1 87//1 97//1
f  99//1 87//1 98//1
f  100//1 87//1 99//1
f  101//1 102//1 87//1
f  101//1 87//1 100//1
f  103//1 102//1 101//1
f  104//1 102//1 103//1
f  105//1 102//1 104//1
f  106//1 102//1 105//1
f  107//1 102//1 106//1
f  108//1 102//1 107//1
f  109//1 102//1 108//1
f  110//1 102//1 109//1
f  111//1 102//1 110//1
f  111//1 35//1 102//1
f  112//1 35//1 111//1
f  113//1 35//1 112//1
f  114//1 35//1 113//1
f  115//1 35//1 114//1
f  116//1 35//1 115//1
f  34//1 35//1 117//1
f  117//1 35//1 118//1
f  118//1 35//1 116//1
f  66//1 89//1 119//1
f  66//1 119//1 120//1
f  66//1 120//1 121//1
f  66//1 121//1 122//1
f  66//1 122//1 123//1
f  66//1 123//1 124//1
f  66//1 124//1 125//1
f  126//2 57//2 58//2
f  58//2 127//2 126//2
f  57//3 126//3 128//3
f  128//3 56//3 57//3
f  127//4 58//4 59//4
f  59//4 129//4 127//4
f  130//5 60//5 61//5
f  130//5 53//5 131//5
f  60//6 130//6 129//6
f  129//6 59//6 60//6
f  132//7 53//7 50//7
f  53//7 132//7 131//7
f  41//8 133//8 42//8
f  133//9 41//9 134//9
f  40//10 134//10 41//10
f  134//8 40//8 135//8
f  136//11 18//11 137//11
f  18//12 136//12 16//12
f  18//12 138//12 137//12
f  125//13 139//13 66//13
f  139//14 125//14 140//14
f  139//2 50//2 66//2
f  50//2 139//2 132//2
f  34//15 141//15 33//15
f  141//16 34//16 142//16
f  33//16 143//16 36//16
f  143//17 33//17 141//17
f  36//17 144//17 38//17
f  144//18 36//18 143//18
f  38//18 145//18 39//18
f  145//19 38//19 144//19
f  39//19 135//19 40//19
f  135//10 39//10 145//10
f  117//20 142//20 34//20
f  142//15 117//15 146//15
f  118//21 146//21 117//21
f  146//20 118//20 147//20
f  116//22 147//22 118//22
f  147//21 116//21 148//21
f  115//23 148//23 116//23
f  148//22 115//22 149//22
f  114//24 149//24 115//24
f  149//23 114//23 150//23
f  44//25 151//25 45//25
f  151//26 44//26 152//26
f  151//26 46//26 45//26
f  53//27 130//27 61//27
f  113//28 150//28 114//28
f  150//24 113//24 153//24
f  154//29 64//29 62//29
f  62//29 155//29 154//29
f  64//30 154//30 156//30
f  156//30 65//30 64//30
f  65//31 156//31 157//31
f  157//31 67//31 65//31
f  67//32 157//32 158//32
f  158//32 68//32 67//32
f  68//33 158//33 159//33
f  159//33 69//33 68//33
f  69//34 159//34 160//34
f  160//34 70//34 69//34
f  70//35 160//35 161//35
f  161//35 71//35 70//35
f  71//36 161//36 162//36
f  162//36 72//36 71//36
f  72//37 162//37 163//37
f  163//37 73//37 72//37
f  73//38 163//38 164//38
f  164//38 74//38 73//38
f  74//39 164//39 165//39
f  74//39 166//39 75//39
f  166//40 74//40 165//40
f  167//41 75//41 166//41
f  75//40 167//40 76//40
f  168//42 76//42 167//42
f  76//41 168//41 77//41
f  169//43 77//43 168//43
f  77//42 169//42 78//42
f  170//44 78//44 169//44
f  78//43 170//43 79//43
f  171//45 79//45 170//45
f  79//44 171//44 80//44
f  172//46 80//46 171//46
f  80//45 172//45 81//45
f  173//47 81//47 172//47
f  81//46 173//46 82//46
f  174//48 82//48 173//48
f  82//47 174//47 83//47
f  175//49 83//49 174//49
f  83//48 175//48 85//48
f  176//50 85//50 175//50
f  85//49 176//49 88//49
f  177//51 88//51 176//51
f  88//50 177//50 86//50
f  178//52 86//52 177//52
f  86//51 178//51 90//51
f  179//53 90//53 178//53
f  90//52 179//52 91//52
f  180//54 91//54 179//54
f  91//53 180//53 92//53
f  181//11 92//11 180//11
f  92//54 181//54 93//54
f  182//12 93//12 181//12
f  182//12 95//12 94//12
f  93//11 182//11 94//11
f  95//55 182//55 183//55
f  183//55 96//55 95//55
f  96//56 183//56 184//56
f  184//56 97//56 96//56
f  97//57 184//57 185//57
f  185//57 98//57 97//57
f  98//58 185//58 186//58
f  186//58 99//58 98//58
f  99//59 186//59 187//59
f  187//59 100//59 99//59
f  112//5 153//5 113//5
f  112//5 188//5 189//5
f  153//28 112//28 189//28
f  188//6 112//6 111//6
f  111//6 190//6 188//6
f  190//4 111//4 110//4
f  110//4 191//4 190//4
f  191//2 110//2 109//2
f  109//2 192//2 191//2
f  192//3 109//3 108//3
f  108//3 193//3 192//3
f  193//60 108//60 107//60
f  107//60 194//60 193//60
f  194//61 107//61 106//61
f  106//61 195//61 194//61
f  195//62 106//62 105//62
f  105//62 196//62 195//62
f  196//63 105//63 104//63
f  104//63 197//63 196//63
f  197//64 104//64 103//64
f  103//64 198//64 197//64
f  198//65 103//65 101//65
f  101//65 199//65 198//65
f  46//7 151//7 200//7
f  200//7 47//7 46//7
f  47//66 200//66 201//66
f  201//66 48//66 47//66
f  48//67 201//67 202//67
f  202//67 49//67 48//67
f  49//68 202//68 203//68
f  203//68 51//68 49//68
f  51//69 203//69 204//69
f  204//69 63//69 51//69
f  63//70 204//70 155//70
f  155//70 62//70 63//70
f  199//71 101//71 100//71
f  100//71 187//71 199//71
f  124//25 140//25 125//25
f  140//13 124//13 205//13
f  123//26 205//26 124//26
f  123//26 206//26 207//26
f  205//25 123//25 207//25
f  206//7 123//7 122//7
f  122//7 208//7 206//7
f  208//66 122//66 121//66
f  121//66 209//66 208//66
f  209//67 121//67 120//67
f  120//67 210//67 209//67
f  210//68 120//68 119//68
f  119//68 211//68 210//68
f  211//69 119//69 89//69
f  89//69 212//69 211//69
f  212//70 89//70 84//70
f  84//70 213//70 212//70
f  213//29 84//29 87//29
f  87//29 214//29 213//29
f  214//30 87//30 102//30
f  102//30 215//30 214//30
f  215//31 102//31 35//31
f  35//31 216//31 215//31
f  216//32 35//32 31//32
f  31//32 217//32 216//32
f  217//33 31//33 29//33
f  29//33 218//33 217//33
f  218//34 29//34 27//34
f  27//34 219//34 218//34
f  219//35 27//35 25//35
f  25//35 220//35 219//35
f  220//36 25//36 23//36
f  23//36 221//36 220//36
f  221//37 23//37 21//37
f  21//37 222//37 221//37
f  222//38 21//38 19//38
f  19//38 223//38 222//38
f  223//39 19//39 17//39
f  223//39 15//39 224//39
f  15//40 223//40 17//40
f  224//40 13//40 225//40
f  13//41 224//41 15//41
f  225//41 11//41 226//41
f  11//42 225//42 13//42
f  226//42 9//42 227//42
f  9//43 226//43 11//43
f  227//43 7//43 228//43
f  7//44 227//44 9//44
f  228//44 5//44 229//44
f  5//45 228//45 7//45
f  229//45 1//45 230//45
f  1//46 229//46 5//46
f  230//46 3//46 231//46
f  3//47 230//47 1//47
f  231//47 2//47 232//47
f  2//48 231//48 3//48
f  232//48 4//48 233//48
f  4//49 232//49 2//49
f  233//49 6//49 234//49
f  6//50 233//50 4//50
f  235//56 20//56 22//56
f  22//56 236//56 235//56
f  20//55 235//55 138//55
f  138//55 18//55 20//55
f  234//50 8//50 237//50
f  8//51 234//51 6//51
f  237//51 10//51 238//51
f  10//52 237//52 8//52
f  238//52 12//52 239//52
f  12//53 238//53 10//53
f  239//53 14//53 240//53
f  14//54 239//54 12//54
f  236//57 22//57 24//57
f  24//57 241//57 236//57
f  241//58 24//58 26//58
f  26//58 242//58 241//58
f  242//59 26//59 28//59
f  28//59 243//59 242//59
f  243//71 28//71 30//71
f  30//71 244//71 243//71
f  244//65 30//65 32//65
f  32//65 245//65 244//65
f  245//64 32//64 37//64
f  37//64 246//64 245//64
f  246//63 37//63 52//63
f  52//63 247//63 246//63
f  247//62 52//62 54//62
f  54//62 248//62 247//62
f  248//61 54//61 55//61
f  55//61 249//61 248//61
f  249//60 55//60 56//60
f  56//60 128//60 249//60
f  240//54 16//54 136//54
f  16//11 240//11 14//11
f  244//72 143//72 141//72
f  143//72 244//72 245//72
f  216//72 243//72 244//72
f  216//72 244//72 141//72
f  143//72 245//72 144//72
f  144//72 245//72 145//72
f  145//72 245//72 135//72
f  135//72 245//72 134//72
f  134//72 245//72 133//72
f  133//72 245//72 250//72
f  250//72 245//72 152//72
f  152//72 245//72 151//72
f  151//72 245//72 200//72
f  200//72 245//72 201//72
f  201//72 245//72 202//72
f  202//72 245//72 203//72
f  203//72 245//72 132//72
f  132//72 245//72 246//72
f  203//72 132//72 204//72
f  204//72 132//72 155//72
f  132//72 154//72 155//72
f  154//72 132//72 156//72
f  132//72 246//72 131//72
f  156//72 132//72 157//72
f  157//72 132//72 139//72
f  131//72 246//72 247//72
f  131//72 247//72 248//72
f  131//72 248//72 249//72
f  131//72 249//72 128//72
f  131//72 128//72 126//72
f  131//72 126//72 127//72
f  131//72 127//72 129//72
f  131//72 129//72 130//72
f  157//72 139//72 158//72
f  158//72 139//72 159//72
f  159//72 139//72 160//72
f  160//72 139//72 161//72
f  161//72 139//72 162//72
f  162//72 139//72 163//72
f  163//72 139//72 164//72
f  164//72 139//72 165//72
f  165//72 139//72 166//72
f  166//72 139//72 167//72
f  167//72 139//72 168//72
f  168//72 139//72 169//72
f  169//72 139//72 170//72
f  170//72 139//72 171//72
f  171//72 139//72 172//72
f  172//72 139//72 173//72
f  173//72 139//72 212//72
f  212//72 139//72 211//72
f  211//72 139//72 210//72
f  210//72 139//72 209//72
f  209//72 139//72 208//72
f  208//72 139//72 206//72
f  206//72 139//72 207//72
f  207//72 139//72 205//72
f  205//72 139//72 140//72
f  212//72 174//72 173//72
f  212//72 175//72 174//72
f  212//72 176//72 175//72
f  212//72 177//72 176//72
f  213//72 178//72 177//72
f  213//72 177//72 212//72
f  213//72 179//72 178//72
f  213//72 180//72 179//72
f  213//72 181//72 180//72
f  213//72 182//72 181//72
f  213//72 183//72 182//72
f  213//72 184//72 183//72
f  213//72 185//72 184//72
f  213//72 186//72 185//72
f  213//72 187//72 186//72
f  213//72 199//72 187//72
f  213//72 198//72 199//72
f  214//72 198//72 213//72
f  214//72 197//72 198//72
f  214//72 196//72 197//72
f  214//72 195//72 196//72
f  214//72 194//72 195//72
f  214//72 193//72 194//72
f  214//72 192//72 193//72
f  214//72 191//72 192//72
f  214//72 190//72 191//72
f  214//72 188//72 190//72
f  215//72 188//72 214//72
f  215//72 189//72 188//72
f  215//72 153//72 189//72
f  215//72 150//72 153//72
f  215//72 149//72 150//72
f  215//72 148//72 149//72
f  215//72 147//72 148//72
f  215//72 146//72 147//72
f  216//72 142//72 215//72
f  215//72 142//72 146//72
f  217//72 243//72 216//72
f  216//72 141//72 142//72
f  218//72 242//72 217//72
f  217//72 242//72 243//72
f  219//72 241//72 218//72
f  218//72 241//72 242//72
f  220//72 236//72 219//72
f  219//72 236//72 241//72
f  221//72 235//72 220//72
f  220//72 235//72 236//72
f  222//72 138//72 221//72
f  221//72 138//72 235//72
f  223//72 137//72 222//72
f  222//72 137//72 138//72
f  224//72 136//72 223//72
f  223//72 136//72 137//72
f  225//72 240//72 224//72
f  224//72 240//72 136//72
f  226//72 239//72 225//72
f  225//72 239//72 240//72
f  227//72 238//72 226//72
f  226//72 238//72 239//72
f  228//72 237//72 227//72
f  227//72 237//72 238//72
f  229//72 234//72 228//72
f  228//72 234//72 237//72
f  230//72 233//72 229//72
f  229//72 233//72 234//72
f  232//72 230//72 231//72
f  230//72 232//72 233//72
f  42//9 250//9 43//9
f  250//13 42//13 133//13
f  43//13 152//13 44//13
f  152//25 43//25 250//25

